<?xml version="1.0" standalone="no"?>
<!DOCTYPE svg PUBLIC "-//W3C//DTD SVG 20010904//EN"
 "http://www.w3.org/TR/2001/REC-SVG-20010904/DTD/svg10.dtd">
<svg version="1.0" xmlns="http://www.w3.org/2000/svg"
 width="300.000000pt" height="194.000000pt" viewBox="0 0 300.000000 194.000000"
 preserveAspectRatio="xMidYMid meet">
<metadata>
Created by potrace 1.10, written by Peter Selinger 2001-2011
</metadata>
<g transform="translate(0.000000,194.000000) scale(0.100000,-0.100000)"
fill="#000000" stroke="none">
<path d="M2540 1655 c-144 -30 -181 -31 -205 -5 -10 11 -21 20 -26 20 -13 0
-29 -61 -29 -110 0 -68 32 -95 108 -94 71 0 114 22 215 108 89 75 139 96 183
75 20 -10 30 -23 32 -41 4 -37 -30 -57 -120 -69 -183 -26 -258 -105 -373 -398
-31 -80 -63 -158 -72 -174 -14 -28 -14 -29 3 -22 38 16 184 16 328 1 185 -20
286 -20 331 -2 47 20 45 42 -10 122 -66 97 -72 167 -20 246 30 46 22 53 -54
46 -107 -10 -173 -78 -152 -155 12 -42 40 -72 113 -122 59 -39 74 -64 53 -85
-35 -34 -210 -35 -258 -1 -47 35 -70 95 -65 178 8 153 114 293 244 326 112 28
141 136 47 172 -41 15 -152 9 -273 -16z m4 -83 c-39 -32 -123 -72 -154 -72
-42 0 -72 27 -68 63 3 32 3 32 58 30 30 -2 84 3 120 10 74 14 87 5 44 -31z
m76 -97 c0 -3 -19 -29 -43 -58 -89 -109 -121 -255 -79 -364 l20 -53 -93 0
c-52 0 -96 4 -100 9 -7 13 87 249 125 315 16 28 42 65 57 83 36 41 113 87 113
68z m203 -187 c-4 -13 -8 -56 -8 -95 0 -40 -3 -73 -7 -73 -4 0 -25 17 -48 38
-29 29 -40 47 -40 69 0 46 39 82 88 83 20 0 22 -3 15 -22z"/>
<path d="M233 1650 c-72 -15 -138 -55 -180 -112 -32 -44 -32 -121 0 -169 22
-34 46 -48 242 -141 65 -31 96 -52 112 -77 41 -61 24 -135 -38 -167 -44 -22
-68 -17 -109 24 -45 45 -58 94 -43 167 13 61 6 67 -61 62 -42 -4 -55 -10 -83
-41 -29 -31 -33 -42 -33 -91 0 -51 3 -59 41 -99 49 -54 107 -76 198 -76 203 1
334 203 225 346 -39 53 -100 82 -285 139 -96 29 -144 61 -134 87 4 10 23 20
42 24 94 18 229 -32 302 -111 23 -25 46 -45 51 -45 22 0 60 75 60 119 0 39 -5
49 -47 91 -70 69 -151 91 -260 70z m185 -61 c66 -32 97 -93 72 -140 -10 -18
-14 -16 -63 22 -65 52 -138 87 -199 95 -90 12 -40 42 71 43 57 1 85 -4 119
-20z m-290 -183 c26 -13 84 -34 128 -46 165 -45 244 -109 244 -196 0 -72 -22
-101 -35 -45 -15 69 -75 113 -273 202 -66 29 -122 75 -122 100 0 13 5 12 58
-15z m42 -263 c0 -40 8 -74 25 -110 27 -60 20 -66 -42 -36 -90 42 -98 165 -13
196 28 10 30 7 30 -50z"/>
<path d="M720 1646 c0 -4 7 -21 16 -37 15 -29 14 -32 -16 -77 -31 -47 -69
-158 -135 -397 -40 -144 -78 -223 -119 -243 -14 -7 -26 -17 -26 -21 0 -18 51
-41 90 -41 51 0 88 19 127 64 45 50 56 95 51 197 l-5 88 60 -46 c33 -26 72
-67 86 -91 14 -25 38 -58 53 -74 24 -26 33 -28 96 -28 l70 0 -19 62 c-11 33
-29 118 -40 187 -62 376 -69 401 -125 433 -31 18 -164 37 -164 24z m139 -61
c41 -21 58 -72 91 -285 16 -104 34 -208 40 -232 15 -67 13 -88 -9 -88 -37 0
-54 13 -92 72 -32 51 -36 63 -26 79 15 25 -33 323 -63 384 -21 43 -25 67 -13
78 11 11 42 8 72 -8z m-79 -125 c21 -101 59 -324 55 -328 -7 -7 -115 78 -131
103 -26 40 -15 164 20 238 16 32 32 55 36 50 4 -4 13 -33 20 -63z m-109 -252
c5 -64 -5 -219 -16 -243 -18 -42 -65 -83 -103 -91 -39 -8 -39 -5 -7 46 24 38
70 162 95 258 10 39 29 57 31 30z"/>
<path d="M1114 1628 c31 -103 24 -585 -11 -674 -4 -11 9 -14 71 -14 41 0 124
-7 183 -16 174 -26 254 -6 261 64 4 35 -3 51 -65 145 -74 111 -87 188 -45 259
9 15 13 31 8 35 -4 4 -33 8 -64 7 -72 0 -119 -24 -138 -70 -28 -68 6 -128 117
-202 66 -45 109 -97 109 -133 0 -42 -48 -89 -90 -89 -123 0 -194 140 -192 379
1 127 18 209 58 280 13 24 24 45 24 47 0 2 -52 4 -116 4 -116 0 -116 0 -110
-22z m140 -27 c3 -5 -3 -44 -14 -86 -39 -153 -22 -395 36 -506 l15 -29 -64 0
-63 0 3 303 c3 166 6 308 8 315 5 14 71 17 79 3z m193 -273 c0 -35 3 -78 7
-95 11 -46 -7 -43 -60 11 -43 43 -56 83 -36 112 11 17 45 33 69 34 20 0 22 -4
20 -62z"/>
<path d="M1867 1615 l20 -38 -34 -56 c-34 -56 -59 -129 -127 -373 -45 -161
-78 -233 -117 -253 -35 -19 -36 -29 -7 -49 28 -20 100 -21 136 -2 89 46 132
172 103 299 -5 20 -7 37 -4 37 8 0 138 -107 167 -138 19 -21 30 -44 33 -74 4
-37 0 -50 -30 -94 -48 -70 -59 -98 -112 -292 -57 -206 -88 -278 -128 -299 -29
-14 -29 -15 -11 -33 34 -33 111 -30 154 6 56 48 73 95 68 195 l-4 88 45 -37
c52 -42 77 -71 106 -121 26 -46 57 -61 124 -61 45 0 52 2 47 16 -15 38 -58
280 -106 589 -67 432 -97 590 -120 642 -23 52 -56 69 -155 79 l-67 7 19 -38z
m127 -26 c50 -23 65 -83 136 -539 34 -222 57 -362 107 -646 11 -65 -46 -51
-93 22 -28 43 -31 55 -27 99 6 56 -30 272 -51 312 -10 21 -11 32 0 62 7 20 13
46 14 57 0 29 -23 82 -52 119 -18 23 -23 43 -25 95 -2 81 -50 327 -69 354 -15
21 -19 58 -7 69 10 10 39 8 67 -4z m-60 -219 c15 -80 31 -165 36 -190 5 -25 7
-46 5 -48 -6 -6 -88 54 -116 85 -35 38 -41 70 -29 149 11 70 56 172 70 158 4
-5 20 -74 34 -154z m-121 -163 c3 -8 1 -20 -4 -28 -4 -8 -6 -46 -2 -85 7 -83
-6 -131 -48 -179 -27 -30 -83 -55 -95 -42 -3 3 8 29 24 58 32 59 50 106 82
217 20 70 32 86 43 59z m252 -540 c15 -87 25 -160 22 -163 -11 -11 -97 57
-113 88 -12 23 -15 47 -11 89 6 69 54 182 67 159 4 -8 20 -86 35 -173z m-125
-216 c-4 -80 -10 -106 -26 -128 -23 -30 -69 -61 -79 -52 -3 3 8 35 24 70 15
35 39 99 51 141 13 43 26 76 29 74 3 -2 4 -49 1 -105z"/>
<path d="M50 810 c0 -28 329 -141 790 -272 144 -40 518 -138 530 -138 6 0 10
14 10 30 0 17 -2 30 -4 30 -2 0 -89 26 -193 59 -444 139 -796 238 -981 277
-130 27 -152 29 -152 14z"/>
<path d="M2624 693 c-12 -44 14 -77 63 -81 37 -3 47 2 91 42 28 24 60 47 71
51 24 7 64 -12 58 -28 -5 -17 -47 -37 -77 -37 -64 0 -96 -55 -105 -181 -4 -46
-11 -96 -15 -111 l-9 -28 69 0 68 0 -13 49 c-36 136 -27 236 21 246 13 3 35 7
49 10 14 3 31 17 37 30 9 21 8 28 -7 45 -22 24 -78 26 -185 8 -56 -10 -75 -10
-90 0 -17 10 -20 9 -26 -15z"/>
<path d="M2383 703 l-52 -4 6 -32 c10 -43 10 -274 1 -315 l-8 -33 52 3 52 3 3
38 c3 62 50 115 87 101 25 -10 30 -50 13 -102 -20 -58 -10 -72 37 -50 74 36
67 142 -12 176 l-39 16 39 53 c84 110 20 162 -179 146z m125 -67 c3 -40 -4
-63 -35 -127 -21 -44 -42 -79 -47 -79 -5 0 -7 43 -3 99 6 114 25 164 60 159
19 -3 22 -10 25 -52z"/>
<path d="M1470 463 c-42 -5 -60 -19 -60 -44 0 -12 7 -19 19 -19 18 0 47 -29
118 -118 44 -55 91 -70 140 -45 46 23 50 34 16 53 -14 8 -40 42 -57 74 -45 86
-87 110 -176 99z m107 -65 c17 -20 73 -114 73 -124 0 -2 -8 -4 -18 -4 -23 0
-132 118 -132 143 0 17 58 5 77 -15z"/>
</g>
</svg>
